<svg xmlns="http://www.w3.org/2000/svg" viewBox="0 0 1200 560" width="1200" height="560">
<rect width="1200" height="560" fill="#F5F5F7"/>
<text x="64" y="62" font-family="Segoe UI, Helvetica, Arial, sans-serif" font-size="26" font-weight="700" fill="#16161A">Cota do Ribeirão Lavapés na régua da Rua Coronel Osório (m)</text>
<text x="64" y="92" font-family="Segoe UI, Helvetica, Arial, sans-serif" font-size="17" fill="#6B6B74">Dado fictício, gerado para o protótipo</text>
<line x1="64" y1="470" x2="1136" y2="470" stroke="#DCDEE5" stroke-width="1"/>
<line x1="64" y1="392" x2="1136" y2="392" stroke="#DCDEE5" stroke-width="1"/>
<line x1="64" y1="314" x2="1136" y2="314" stroke="#DCDEE5" stroke-width="1"/>
<line x1="64" y1="236" x2="1136" y2="236" stroke="#DCDEE5" stroke-width="1"/>
<line x1="64" y1="158" x2="1136" y2="158" stroke="#DCDEE5" stroke-width="1"/>
<line x1="64" y1="470" x2="1136" y2="470" stroke="#B9BCC6" stroke-width="2"/>
<line x1="64" y1="275" x2="1136" y2="275" stroke="#B0111E" stroke-width="2" stroke-dasharray="8 6"/>
<text x="1136" y="265" text-anchor="end" font-family="Segoe UI, Helvetica, Arial, sans-serif" font-size="16" font-weight="700" fill="#B0111E">cota de transbordo — 2,00 m</text>
<polyline points="64,462 198,455 332,441 466,392 600,213 734,275 868,392 1002,432 1136,449" fill="none" stroke="#0F5B6E" stroke-width="5" stroke-linejoin="round" stroke-linecap="round"/>
<text x="64" y="504" text-anchor="middle" font-family="Segoe UI, Helvetica, Arial, sans-serif" font-size="16" fill="#6B6B74">18h</text>
<text x="198" y="504" text-anchor="middle" font-family="Segoe UI, Helvetica, Arial, sans-serif" font-size="16" fill="#6B6B74">20h</text>
<text x="332" y="504" text-anchor="middle" font-family="Segoe UI, Helvetica, Arial, sans-serif" font-size="16" fill="#6B6B74">22h</text>
<text x="466" y="504" text-anchor="middle" font-family="Segoe UI, Helvetica, Arial, sans-serif" font-size="16" fill="#6B6B74">00h</text>
<text x="600" y="504" text-anchor="middle" font-family="Segoe UI, Helvetica, Arial, sans-serif" font-size="16" fill="#6B6B74">02h</text>
<text x="734" y="504" text-anchor="middle" font-family="Segoe UI, Helvetica, Arial, sans-serif" font-size="16" fill="#6B6B74">04h</text>
<text x="868" y="504" text-anchor="middle" font-family="Segoe UI, Helvetica, Arial, sans-serif" font-size="16" fill="#6B6B74">06h</text>
<text x="1002" y="504" text-anchor="middle" font-family="Segoe UI, Helvetica, Arial, sans-serif" font-size="16" fill="#6B6B74">08h</text>
<text x="1136" y="504" text-anchor="middle" font-family="Segoe UI, Helvetica, Arial, sans-serif" font-size="16" fill="#6B6B74">10h</text>
<text x="48" y="476" text-anchor="end" font-family="Segoe UI, Helvetica, Arial, sans-serif" font-size="16" fill="#6B6B74">0.0</text>
<text x="48" y="398" text-anchor="end" font-family="Segoe UI, Helvetica, Arial, sans-serif" font-size="16" fill="#6B6B74">0.8</text>
<text x="48" y="320" text-anchor="end" font-family="Segoe UI, Helvetica, Arial, sans-serif" font-size="16" fill="#6B6B74">1.6</text>
<text x="48" y="242" text-anchor="end" font-family="Segoe UI, Helvetica, Arial, sans-serif" font-size="16" fill="#6B6B74">2.4</text>
<text x="48" y="164" text-anchor="end" font-family="Segoe UI, Helvetica, Arial, sans-serif" font-size="16" fill="#6B6B74">3.2</text>
</svg>
